<mxfile host="app.diagrams.net" agent="Mozilla/5.0 (Windows NT 10.0; Win64; x64) AppleWebKit/537.36 (KHTML, like Gecko) Chrome/136.0.0.0 Safari/537.36 Edg/136.0.0.0" version="27.1.3">
  <diagram name="第 1 页" id="1u8ArTw1FontLBKyfY_l">
    <mxGraphModel dx="1207" dy="685" grid="1" gridSize="10" guides="1" tooltips="1" connect="1" arrows="1" fold="1" page="1" pageScale="1" pageWidth="413" pageHeight="583" math="0" shadow="0">
      <root>
        <mxCell id="0" />
        <mxCell id="1" parent="0" />
        <mxCell id="IfK5ttkl6s_aPx9pHkFj-1" value="" style="edgeStyle=orthogonalEdgeStyle;rounded=0;orthogonalLoop=1;jettySize=auto;html=1;" edge="1" parent="1" source="IfK5ttkl6s_aPx9pHkFj-2" target="IfK5ttkl6s_aPx9pHkFj-4">
          <mxGeometry relative="1" as="geometry" />
        </mxCell>
        <mxCell id="IfK5ttkl6s_aPx9pHkFj-2" value="main" style="ellipse;whiteSpace=wrap;html=1;fillColor=#f5f5f5;strokeColor=#666666;fontColor=#333333;" vertex="1" parent="1">
          <mxGeometry x="60" y="90" width="120" height="50" as="geometry" />
        </mxCell>
        <mxCell id="IfK5ttkl6s_aPx9pHkFj-3" value="" style="edgeStyle=orthogonalEdgeStyle;rounded=0;orthogonalLoop=1;jettySize=auto;html=1;" edge="1" parent="1" source="IfK5ttkl6s_aPx9pHkFj-4" target="IfK5ttkl6s_aPx9pHkFj-6">
          <mxGeometry relative="1" as="geometry" />
        </mxCell>
        <mxCell id="IfK5ttkl6s_aPx9pHkFj-4" value="初始化I2C黑名单列表" style="whiteSpace=wrap;html=1;fillColor=#dae8fc;strokeColor=#6c8ebf;" vertex="1" parent="1">
          <mxGeometry x="60" y="180" width="120" height="60" as="geometry" />
        </mxCell>
        <mxCell id="IfK5ttkl6s_aPx9pHkFj-5" value="" style="edgeStyle=orthogonalEdgeStyle;rounded=0;orthogonalLoop=1;jettySize=auto;html=1;" edge="1" parent="1" source="IfK5ttkl6s_aPx9pHkFj-6" target="IfK5ttkl6s_aPx9pHkFj-8">
          <mxGeometry relative="1" as="geometry" />
        </mxCell>
        <mxCell id="IfK5ttkl6s_aPx9pHkFj-6" value="解析Fru配置文件" style="whiteSpace=wrap;html=1;fillColor=#d5e8d4;strokeColor=#82b366;" vertex="1" parent="1">
          <mxGeometry x="60" y="281.5" width="120" height="58.5" as="geometry" />
        </mxCell>
        <mxCell id="IfK5ttkl6s_aPx9pHkFj-7" style="edgeStyle=orthogonalEdgeStyle;rounded=0;orthogonalLoop=1;jettySize=auto;html=1;entryX=0;entryY=0.5;entryDx=0;entryDy=0;" edge="1" parent="1" source="IfK5ttkl6s_aPx9pHkFj-8" target="IfK5ttkl6s_aPx9pHkFj-10">
          <mxGeometry relative="1" as="geometry" />
        </mxCell>
        <mxCell id="IfK5ttkl6s_aPx9pHkFj-8" value="注册Dbus接口、方法、属性" style="whiteSpace=wrap;html=1;fillColor=#ffe6cc;strokeColor=#d79b00;" vertex="1" parent="1">
          <mxGeometry x="60" y="380" width="120" height="60" as="geometry" />
        </mxCell>
        <mxCell id="IfK5ttkl6s_aPx9pHkFj-9" value="" style="edgeStyle=orthogonalEdgeStyle;rounded=0;orthogonalLoop=1;jettySize=auto;html=1;" edge="1" parent="1" source="IfK5ttkl6s_aPx9pHkFj-10" target="IfK5ttkl6s_aPx9pHkFj-12">
          <mxGeometry relative="1" as="geometry" />
        </mxCell>
        <mxCell id="IfK5ttkl6s_aPx9pHkFj-10" value="监控主机上电状态变化" style="whiteSpace=wrap;html=1;fillColor=#f8cecc;strokeColor=#b85450;" vertex="1" parent="1">
          <mxGeometry x="230" y="90" width="120" height="60" as="geometry" />
        </mxCell>
        <mxCell id="IfK5ttkl6s_aPx9pHkFj-11" value="" style="edgeStyle=orthogonalEdgeStyle;rounded=0;orthogonalLoop=1;jettySize=auto;html=1;" edge="1" parent="1" source="IfK5ttkl6s_aPx9pHkFj-12" target="IfK5ttkl6s_aPx9pHkFj-14">
          <mxGeometry relative="1" as="geometry" />
        </mxCell>
        <mxCell id="IfK5ttkl6s_aPx9pHkFj-12" value="监控/dev目录下i2c字符设备的变化" style="whiteSpace=wrap;html=1;fillColor=#e1d5e7;strokeColor=#9673a6;" vertex="1" parent="1">
          <mxGeometry x="230" y="190" width="120" height="60" as="geometry" />
        </mxCell>
        <mxCell id="IfK5ttkl6s_aPx9pHkFj-13" value="" style="edgeStyle=orthogonalEdgeStyle;rounded=0;orthogonalLoop=1;jettySize=auto;html=1;" edge="1" parent="1" source="IfK5ttkl6s_aPx9pHkFj-14" target="IfK5ttkl6s_aPx9pHkFj-15">
          <mxGeometry relative="1" as="geometry" />
        </mxCell>
        <mxCell id="IfK5ttkl6s_aPx9pHkFj-14" value="初始化Fru信息" style="whiteSpace=wrap;html=1;fillColor=#60a917;strokeColor=#2D7600;fontColor=#ffffff;" vertex="1" parent="1">
          <mxGeometry x="230" y="290" width="120" height="60" as="geometry" />
        </mxCell>
        <mxCell id="IfK5ttkl6s_aPx9pHkFj-15" value="io.run()" style="ellipse;whiteSpace=wrap;html=1;fillColor=#a0522d;strokeColor=#6D1F00;fontColor=#ffffff;" vertex="1" parent="1">
          <mxGeometry x="230" y="390" width="120" height="50" as="geometry" />
        </mxCell>
      </root>
    </mxGraphModel>
  </diagram>
</mxfile>
